<?xml version="1.0" encoding="utf-8"?>
<!-- Generator: Adobe Illustrator 20.1.0, SVG Export Plug-In . SVG Version: 6.00 Build 0)  -->
<svg version="1.1" xmlns="http://www.w3.org/2000/svg" xmlns:xlink="http://www.w3.org/1999/xlink" x="0px" y="0px"
	 viewBox="0 0 295.8 80.5" style="enable-background:new 0 0 295.8 80.5;" xml:space="preserve">
<style type="text/css">
	.st0{fill-rule:evenodd;clip-rule:evenodd;fill:#FFFFFF;}
</style>
<g id="Layer_2">
</g>
<g id="Layer_1">
	<g>
		<path class="st0" d="M49.7,54.5v-25L22.6,60.5c6.4,9,16.9,14.9,28.7,14.9c0.1,0,0.2,0,0.3,0c14.2-0.1,26.4-8.7,31.8-21H51.6H49.7z
			"/>
		<path class="st0" d="M53.3,27v23.8l27.2-30c-6.3-9.4-16.9-15.7-29-15.7c-0.1,0-0.2,0-0.3,0c-14.7,0-27.4,9.1-32.6,22L51.6,27H53.3
			z"/>
		<path class="st0" d="M103.6,17.3c-3,0.2-4.6,1.2-5.8,2.8c-1.3,1.6-2.2,3.6-2.2,6.6c0,9.6,0,19.5,0,29.1l11.3,0L107,41l25.3,0v-9.3
			l-25.6,0.1c-0.1-2.2-0.2-4.2,1.4-5c2-1,5.8-0.7,9.4-0.7c4.9,0,10.6,0,14.9,0l0-9C125.3,17.2,110.8,16.9,103.6,17.3z"/>
		<polygon class="st0" points="177.8,17.2 166.7,17.2 157.6,30.5 148.4,17.1 136.8,17.1 150,36.1 136.8,55.6 148,55.5 157.5,41.7 
			166.7,55.5 178,55.5 164.8,36.1 		"/>
		<path class="st0" d="M211.9,17.2h-24.8c-4.1,0-7.5,3.4-7.5,7.5V48c0,4.1,3.4,7.5,7.5,7.5h24.8c4.1,0,7.5-3.4,7.5-7.5v-5.6h-9.3
			v0.4c0,2.2-1.7,4-3.8,4h-12.6c-2.1,0-3.8-1.8-3.8-4V30.4c0-2.2,1.7-4,3.8-4h12.6c1.9,0,3.5,1.5,3.8,3.4h9.3v-5
			C219.4,20.6,216.1,17.2,211.9,17.2z"/>
		<path class="st0" d="M269.1,17.2h-7.7h-28.6c-4.4,0-8,4.8-8,10.6v28h11v-7.9h0V30.7c0-2.6,2.4-4.7,5.4-4.7h3c0.5,0,1,0.1,1.4,0.2
			v21.7h0v7.9h10.8V26.3c0.5-0.1,1-0.2,1.4-0.2h2.9c0.2,0,0.3,0,0.5,0c2.7,0.2,4.9,2.3,4.9,4.7v25.1H277v-28
			C277,21.9,273.5,17.2,269.1,17.2z"/>
	</g>
</g>
</svg>
