<?xml version="1.0" encoding="utf-8"?>
<!-- Generator: Adobe Illustrator 20.1.0, SVG Export Plug-In . SVG Version: 6.00 Build 0)  -->
<!DOCTYPE svg PUBLIC "-//W3C//DTD SVG 1.1//EN" "http://www.w3.org/Graphics/SVG/1.1/DTD/svg11.dtd">
<svg version="1.1" id="Layer_3" xmlns="http://www.w3.org/2000/svg" xmlns:xlink="http://www.w3.org/1999/xlink" x="0px" y="0px"
	 viewBox="0 0 295.8 80.5" style="enable-background:new 0 0 295.8 80.5;" xml:space="preserve">
<style type="text/css">
	.st0{fill:#0C51A3;}
</style>
<g>
	<path class="st0" d="M49.5,54.4v-25l-27,31.1c6.4,9,16.9,14.9,28.7,14.9h0.3c14.2-0.1,26.4-8.7,31.8-20.9H51.5L49.5,54.4L49.5,54.4
		z"/>
	<path class="st0" d="M53.2,27v23.7l27.2-30C74.2,11.4,63.5,5.2,51.5,5.1h-0.3c-14.7,0-27.4,9.1-32.6,22L53.2,27z"/>
	<path class="st0" d="M103.4,17.2c-3,0-4.6,1.3-5.9,2.8s-2.2,3.6-2.2,6.6v29.1h11.3l0.1-14.7H132v-9.4l-25.6,0.1
		c-0.1-2.2-0.2-4.2,1.4-5c2-1,5.8-0.7,9.4-0.7c4.9,0,10.5,0,14.9,0v-9C125.1,17.2,110.6,17.2,103.4,17.2"/>
	<polygon class="st0" points="177.6,17.2 166.5,17.2 157.4,30.4 148.2,17.1 136.7,17.1 149.9,36 136.7,55.5 147.6,55.7 157.3,41.7 
		166.8,55.7 178.2,55.8 164.6,36 	"/>
	<path class="st0" d="M211.7,17.2h-24.8c-4.1,0-7.5,3.4-7.5,7.6v23.4c0,4.2,3.4,7.6,7.5,7.6h24.8c4.1,0,7.5-3.4,7.5-7.6v-5.6H210V43
		c0,2.2-1.7,4.1-3.8,4.1h-12.6c-2.1,0-3.8-1.8-3.8-4.1V30.5c0-2.2,1.7-4,3.8-4h12.6c1.9,0,3.5,1.5,3.8,3.4h9.3v-5.1
		C219.2,20.6,215.9,17.2,211.7,17.2"/>
	<path class="st0" d="M268.9,17.2h-7.7h-28.5c-4.4,0-8,4.8-8,10.6v28h11v-7.9l0,0V30.6c0-2.6,2.4-4.7,5.5-4.7h3c0.5,0,1,0.1,1.4,0.2
		v21.7l0,0v7.9h10.8V26.2c0.5-0.1,1-0.2,1.4-0.2h2.9c0.2,0,0.3,0,0.5,0c2.7,0.2,4.9,2.2,4.9,4.7v25h10.8v-28
		C276.8,21.9,273.2,17.2,268.9,17.2"/>
	<path class="st0" d="M101.3,73h-3.5L97,75.4h-1.3l3.4-9.3h1.1l3.3,9.3h-1.3L101.3,73z M98.1,71.9h2.8l-1.4-4l0,0L98.1,71.9z"/>
	<polygon class="st0" points="114.5,74.4 119.1,74.4 119.1,75.3 113.3,75.3 113.3,66.1 114.5,66.1 	"/>
	<polygon class="st0" points="128.2,71.1 124.4,71.1 124.4,74.4 128.8,74.4 128.8,75.3 123.1,75.3 123.1,66.1 128.8,66.1 
		128.8,67.1 124.4,67.1 124.4,70.1 128.2,70.1 	"/>
	<path class="st0" d="M139.8,66.1v6.2c0,1-0.3,1.8-1,2.4s-1.5,0.8-2.5,0.8s-1.8-0.3-2.5-0.8c-0.6-0.6-1-1.4-1-2.4v-6.2h1.3v6.2
		c0,0.7,0.2,1.3,0.6,1.7c0.4,0.4,0.9,0.6,1.5,0.6c0.7,0,1.2-0.2,1.7-0.6c0.4-0.4,0.6-1,0.6-1.7v-6.2H139.8z"/>
	<path class="st0" d="M151.1,72.4L151.1,72.4c0,0.9-0.3,1.6-0.9,2.2c-0.6,0.6-1.4,0.9-2.5,0.9s-1.9-0.4-2.5-1.1
		c-0.7-0.7-1-1.7-1-2.8v-1.7c0-1.1,0.3-2.1,1-2.8c0.7-0.7,1.5-1.1,2.5-1.1s1.9,0.3,2.5,0.8c0.6,0.6,0.9,1.3,0.9,2.2l0,0h-1.2
		c0-0.7-0.2-1.1-0.6-1.5c-0.4-0.4-0.9-0.6-1.6-0.6c-0.7,0-1.3,0.3-1.7,0.8c-0.4,0.6-0.6,1.3-0.6,2.1v1.7c0,0.8,0.2,1.5,0.6,2.1
		s1,0.8,1.7,0.8s1.2-0.2,1.6-0.6c0.4-0.4,0.6-0.9,0.6-1.5L151.1,72.4L151.1,72.4z"/>
	<path class="st0" d="M160.2,73h-3.5l-0.8,2.4h-1.3l3.4-9.3h1.1l3.3,9.3H161L160.2,73z M157.1,71.9h2.8l-1.4-4l0,0L157.1,71.9z"/>
	<path class="st0" d="M166.3,75.3V66h2.9c1.2,0,2.2,0.4,2.9,1.1s1.1,1.7,1.1,2.9v1.3c0,1.2-0.4,2.1-1.1,2.9s-1.7,1.1-2.9,1.1H166.3
		L166.3,75.3z M167.5,67.1v7.3h1.7c0.8,0,1.5-0.3,2-0.8c0.5-0.6,0.7-1.3,0.7-2.2v-1.3c0-0.9-0.3-1.6-0.7-2.1c-0.5-0.6-1.2-0.8-2-0.8
		L167.5,67.1L167.5,67.1z"/>
	<rect x="177.9" y="66.1" class="st0" width="1.3" height="9.3"/>
	<path class="st0" d="M189,73h-3.5l-0.8,2.4h-1.3l3.4-9.3h1.1l3.3,9.3h-1.3L189,73z M185.9,71.9h2.8l-1.4-4l0,0L185.9,71.9z"/>
	<path class="st0" d="M207.7,72.4L207.7,72.4c0,0.9-0.3,1.6-0.9,2.2c-0.6,0.6-1.4,0.9-2.5,0.9c-1,0-1.9-0.4-2.5-1.1
		c-0.7-0.7-1-1.7-1-2.8v-1.7c0-1.1,0.3-2.1,1-2.8s1.5-1.1,2.5-1.1s1.9,0.3,2.5,0.8c0.6,0.6,0.9,1.3,0.9,2.2l0,0h-1.2
		c0-0.7-0.2-1.1-0.6-1.5c-0.4-0.4-0.9-0.6-1.6-0.6s-1.3,0.3-1.7,0.8c-0.4,0.6-0.6,1.3-0.6,2.1v1.7c0,0.8,0.2,1.5,0.6,2.1
		s1,0.8,1.7,0.8s1.2-0.2,1.6-0.6c0.4-0.4,0.6-0.9,0.6-1.5L207.7,72.4L207.7,72.4z"/>
	<path class="st0" d="M219,71.5c0,1.1-0.4,2.1-1.1,2.8s-1.6,1.1-2.7,1.1c-1.1,0-2-0.4-2.6-1.1c-0.7-0.7-1-1.7-1-2.8v-1.7
		c0-1.1,0.3-2.1,1-2.8c0.7-0.7,1.5-1.1,2.6-1.1s2,0.4,2.7,1.1s1.1,1.7,1.1,2.8V71.5z M217.8,69.9c0-0.8-0.2-1.5-0.7-2.1
		c-0.4-0.6-1.1-0.8-1.8-0.8s-1.3,0.3-1.7,0.8c-0.4,0.6-0.7,1.3-0.7,2.1v1.7c0,0.8,0.2,1.5,0.7,2.1c0.4,0.6,1,0.8,1.7,0.8
		c0.8,0,1.4-0.3,1.8-0.8c0.4-0.6,0.7-1.3,0.7-2.1V69.9z"/>
	<polygon class="st0" points="228.1,73.6 228.1,73.6 231.1,66.1 232.7,66.1 232.7,75.3 231.4,75.3 231.4,68.4 231.4,68.4 
		228.5,75.3 227.7,75.3 224.8,68.2 224.8,68.2 224.8,75.3 223.5,75.3 223.5,66.1 225.2,66.1 	"/>
	<path class="st0" d="M238.8,71.6v3.7h-1.3V66h3.5c1,0,1.8,0.3,2.3,0.8c0.6,0.5,0.8,1.2,0.8,2s-0.3,1.5-0.8,2
		c-0.6,0.5-1.3,0.8-2.3,0.8H238.8L238.8,71.6L238.8,71.6z M238.8,70.7h2.3c0.6,0,1.1-0.2,1.4-0.5c0.3-0.3,0.5-0.8,0.5-1.3
		s-0.1-1-0.5-1.3c-0.3-0.3-0.8-0.5-1.4-0.5h-2.3V70.7z"/>
	<path class="st0" d="M252.4,73h-3.5l-0.8,2.4h-1.3l3.4-9.3h1.1l3.3,9.3h-1.3L252.4,73z M249.2,71.9h2.8l-1.4-4l0,0L249.2,71.9z"/>
	<polygon class="st0" points="265.5,75.3 264.2,75.3 259.8,68.3 259.7,68.3 259.7,75.3 258.5,75.3 258.5,66.1 259.7,66.1 
		264.2,73.2 264.2,73.1 264.2,66.1 265.5,66.1 	"/>
	<polygon class="st0" points="273.2,70.8 275.6,66.1 277,66.1 273.8,72.1 273.8,75.3 272.5,75.3 272.5,72 269.3,66.1 270.7,66.1 	
		"/>
</g>
</svg>
