<svg xmlns="http://www.w3.org/2000/svg" viewBox="0 0 885.66 252.12"><defs><style>.cls-1{isolation:isolate;}.cls-2{fill:#2cb5ff;}.cls-3{opacity:0.5;}.cls-4{fill:#33bef2;}.cls-4,.cls-5,.cls-6,.cls-7{mix-blend-mode:hard-light;}.cls-5{fill:#66cef5;}.cls-6{fill:#99dff9;}.cls-7{fill:#00aeef;}</style></defs><title>TechTextures</title><g class="cls-1"><g id="Layer_8" data-name="Layer 8"><rect class="cls-2" x="150.56" y="157.74" width="3.64" height="2.58"/><rect class="cls-2" x="156.88" y="157.74" width="3.65" height="2.58"/><rect class="cls-2" x="497.15" y="43.33" width="3.64" height="2.58"/><rect class="cls-2" x="503.46" y="42.61" width="3.64" height="2.58"/><rect class="cls-2" x="497.15" y="48.17" width="3.64" height="2.58"/><rect class="cls-2" x="523.88" y="55.33" width="3.64" height="2.58"/><rect class="cls-2" x="530.19" y="55.33" width="3.64" height="2.58"/><rect class="cls-2" x="73.5" y="30.09" width="3.64" height="2.58"/><rect class="cls-2" x="503.46" y="47.45" width="3.64" height="2.58"/><circle class="cls-2" cx="81.55" cy="34.46" r="1.45"/><circle class="cls-2" cx="492.07" cy="40.7" r="1.45"/><circle class="cls-2" cx="492.07" cy="47.1" r="1.45"/><circle class="cls-2" cx="530.76" cy="40.41" r="1.45"/><circle class="cls-2" cx="537.99" cy="56.62" r="1.45"/><rect class="cls-2" x="632.16" y="134.27" width="3.64" height="2.58"/><rect class="cls-2" x="638.47" y="134.27" width="3.65" height="2.58"/><rect class="cls-2" x="632.05" y="127.27" width="3.64" height="2.58"/><rect class="cls-2" x="638.36" y="127.27" width="3.64" height="2.58"/><rect class="cls-2" x="625.95" y="127.46" width="3.65" height="2.58"/><circle class="cls-2" cx="324.37" cy="175.17" r="1.45"/><circle class="cls-2" cx="324.37" cy="186.66" r="1.45"/><circle class="cls-2" cx="665.87" cy="132.78" r="1.45"/><circle class="cls-2" cx="665.87" cy="139.18" r="1.45"/><circle class="cls-2" cx="328.25" cy="240.89" r="1.45"/><circle class="cls-2" cx="647.02" cy="132.78" r="1.45"/><circle class="cls-2" cx="647.02" cy="139.18" r="1.45"/><circle class="cls-2" cx="112.15" cy="63.94" r="1.45"/><circle class="cls-2" cx="131.01" cy="63.94" r="1.45"/><circle class="cls-2" cx="342.3" cy="203.7" r="2.74"/><circle class="cls-2" cx="827.82" cy="149.44" r="2.74"/><circle class="cls-2" cx="767.25" cy="159.97" r="1.6"/><path class="cls-2" d="M601.8,276.66a1.77,1.77,0,1,0,1.74,2h59.07l11.18,11.18h15l7.28-7.28h21.72l9.75-9.75a1.29,1.29,0,1,0-.63-.63l-9.48,9.49H695.7L688.42,289H674.17L663,277.79H603.44A1.76,1.76,0,0,0,601.8,276.66Z" transform="translate(-64.22 -192.41)"/><path class="cls-2" d="M668.63,363.68a1.89,1.89,0,1,0,1.86,2.16h63.13l12,12h16l7.78-7.78h23.21L803,359.6a1.38,1.38,0,1,0-.68-.68l-10.14,10.14H769l-7.78,7.78H746l-12-12H670.39A1.88,1.88,0,0,0,668.63,363.68Z" transform="translate(-64.22 -192.41)"/><rect class="cls-2" x="593.12" y="195.07" width="3.77" height="2.67"/><rect class="cls-2" x="486.31" y="195.07" width="3.77" height="2.67"/><rect class="cls-2" x="632.42" y="92.18" width="3.77" height="2.67"/><rect class="cls-2" x="666.66" y="77.82" width="3.77" height="2.67"/><rect class="cls-2" x="773.73" y="164.76" width="2.2" height="1.56"/><rect class="cls-2" x="763.94" y="164.76" width="2.2" height="1.56"/><rect class="cls-2" x="323.13" y="109.24" width="3.77" height="2.67"/><rect class="cls-2" x="698.84" y="42.61" width="1.82" height="2.57"/><rect class="cls-2" x="685.42" y="38.67" width="1.82" height="2.57"/><rect class="cls-2" x="685.56" y="42.97" width="1.82" height="2.57"/><rect class="cls-2" x="720.42" y="204.02" width="1.82" height="2.57"/><rect class="cls-2" x="689.64" y="42.97" width="1.82" height="2.57"/><rect class="cls-2" x="703.66" y="38.32" width="1.82" height="2.57"/><path class="cls-2" d="M440.31,225.05a1.68,1.68,0,1,0,1,3l2.71,2.71h40.5l6.06,6.06h18.88l5.4-5.4h22.66l9.35-9.35h116.1l12.52,12.52H683a1.68,1.68,0,1,0,0-.58h-7.34l-12.52-12.52H546.58l-9.35,9.35H514.57l-5.4,5.4h-18.4l-6.06-6.06h-40.5l-2.54-2.53a1.66,1.66,0,0,0,.3-1A1.68,1.68,0,0,0,440.31,225.05Z" transform="translate(-64.22 -192.41)"/><path class="cls-2" d="M566.32,234.93l.15,0,.32.06.47.08.13-.77-.48-.09-.33-.06-.15,0Z" transform="translate(-64.22 -192.41)"/><polygon class="cls-2" points="735.8 42.17 735.68 41.24 735.1 41.32 735.22 42.26 735.8 42.17"/><polygon class="cls-2" points="736.08 43.77 735.91 42.85 735.33 42.94 735.5 43.88 736.08 43.77"/></g><g id="Layer_3" data-name="Layer 3"><path class="cls-4" d="M858,356.26a2,2,0,0,0-1.93,1.64l-18.15.09-14.29-14.14-137.41.7L675.83,355l-27.09.14-6.43,6.5-23.79.12L610.62,354l-51.94.26-8.08-8-82.07.42a2,2,0,1,0,0,.69l81.79-.42,8.08,8,51.94-.26,7.91,7.83,24.36-.12,6.43-6.5,27.09-.14,10.39-10.5,136.84-.7,14.29,14.14,18.43-.09a2,2,0,1,0,1.93-2.33Z" transform="translate(-64.22 -192.41)"/><rect class="cls-4" x="602.74" y="394.29" width="4.07" height="2.88" transform="translate(-66.22 -189.33) rotate(-0.29)"/><circle class="cls-4" cx="528.89" cy="349.83" r="1.61" transform="translate(-66 -189.7) rotate(-0.29)"/><rect class="cls-4" x="547.06" y="437.51" width="4.07" height="2.88" transform="translate(-66.44 -189.61) rotate(-0.29)"/><rect class="cls-5" x="547" y="429.33" width="4.07" height="2.88" transform="translate(-66.4 -189.61) rotate(-0.29)"/><rect class="cls-6" x="735.85" y="423.71" width="4.07" height="2.88" transform="translate(-66.38 -188.63) rotate(-0.29)"/><rect class="cls-4" x="546.98" y="423.93" width="4.07" height="2.88" transform="translate(-66.39 -189.6) rotate(-0.29)"/><rect class="cls-6" x="539.93" y="424.76" width="4.07" height="2.88" transform="translate(-66.37 -189.65) rotate(-0.29)"/><circle class="cls-4" cx="437.68" cy="314.41" r="1.61" transform="translate(-65.81 -190.18) rotate(-0.29)"/><rect class="cls-5" x="598.8" y="435.37" width="4.07" height="2.88" transform="translate(-66.44 -189.33) rotate(-0.29)"/><rect class="cls-5" x="676.96" y="315.79" width="4.07" height="2.88" transform="translate(-65.82 -188.96) rotate(-0.29)"/><rect class="cls-4" x="788.91" y="361.18" width="4.07" height="2.88" transform="translate(-66.05 -188.39) rotate(-0.29)"/><rect class="cls-4" x="670.07" y="323.64" width="4.07" height="2.88" transform="translate(-65.87 -188.97) rotate(-0.29)"/><rect class="cls-4" x="676.25" y="286.92" width="4.07" height="2.88" transform="translate(-65.67 -188.96) rotate(-0.29)"/><polygon class="cls-6" points="612.01 91.86 616.08 91.84 616.07 88.97 612 88.99 612 90.21 609.03 90.23 609.02 89 604.95 89.02 604.97 91.9 606.79 91.89 606.81 94.55 604.98 94.56 605 97.43 609.07 97.41 609.05 94.53 607.23 94.54 607.21 91.89 609.04 91.88 609.03 90.65 612.01 90.64 612.01 91.86"/><circle class="cls-5" cx="664.28" cy="286.47" r="1.61" transform="translate(-65.67 -189.03) rotate(-0.29)"/><circle class="cls-7" cx="664.46" cy="320.4" r="1.61" transform="translate(-65.85 -189.01) rotate(-0.29)"/><circle class="cls-5" cx="664.42" cy="313.26" r="1.61" transform="translate(-65.8 -189.03) rotate(-0.29)"/><rect class="cls-4" x="728.84" y="379.26" width="4.07" height="2.88" transform="translate(-66.14 -188.7) rotate(-0.29)"/><rect class="cls-4" x="689.35" y="363.2" width="4.07" height="2.88" transform="translate(-66.06 -188.89) rotate(-0.29)"/><rect class="cls-7" x="682.3" y="363.24" width="4.07" height="2.88" transform="translate(-66.06 -188.93) rotate(-0.29)"/><circle class="cls-7" cx="622.69" cy="406.68" r="1.61" transform="translate(-66.26 -189.26) rotate(-0.29)"/><circle class="cls-4" cx="699.08" cy="363.58" r="1.61" transform="translate(-66.06 -188.85) rotate(-0.29)"/><path class="cls-6" d="M643.69,397.82a1.61,1.61,0,0,0-1.37.78l-18.3.09a1.61,1.61,0,1,0,0,1.68l18.3-.09a1.61,1.61,0,1,0,1.36-2.46Z" transform="translate(-64.22 -192.41)"/><rect class="cls-5" x="699.03" y="434.86" width="4.07" height="2.88" transform="translate(-66.44 -188.82) rotate(-0.29)"/><rect class="cls-4" x="466.97" y="418.27" width="4.07" height="2.88" transform="translate(-66.36 -190.01) rotate(-0.29)"/><circle class="cls-7" cx="476.65" cy="424.38" r="1.61" transform="translate(-66.38 -189.96) rotate(-0.29)"/><circle class="cls-7" cx="623.69" cy="399.97" r="3.06" transform="translate(-66.24 -189.23) rotate(-0.29)"/><circle class="cls-4" cx="646.02" cy="371.3" r="3.06" transform="translate(-66.1 -189.12) rotate(-0.29)"/><path class="cls-5" d="M558,237a2.28,2.28,0,0,0-2.13,1.5l-17.41.09-7.87,8L431,247a2.3,2.3,0,1,0-.28,1.6l100.5-.51,7.87-8,16.75-.09A2.28,2.28,0,1,0,558,237Z" transform="translate(-64.22 -192.41)"/><path class="cls-4" d="M485.08,323.86a2.1,2.1,0,0,0-2.07,1.81l-70.45.36-13.41-13.27-17.88.09-8.64,8.72-25.9.13-11.56,11.68a1.54,1.54,0,1,0,.76.75l11.25-11.37,25.9-.13,8.64-8.72,17-.09,13.41,13.27,71-.36a2.1,2.1,0,1,0,1.94-2.88Z" transform="translate(-64.22 -192.41)"/><rect class="cls-6" x="572.91" y="242.64" width="4.21" height="2.98" transform="translate(-65.46 -189.47) rotate(-0.29)"/><rect class="cls-4" x="366.08" y="253.28" width="4.21" height="2.98" transform="translate(-65.5 -190.54) rotate(-0.29)"/><circle class="cls-7" cx="366.88" cy="223.49" r="1.61" transform="matrix(1, -0.01, 0.01, 1, -65.35, -190.54)"/><path class="cls-4" d="M429,346.77a2,2,0,0,0-1.93,1.64l-8.66,0-14.84-14.69-137.49.7-11,11.08-26.72.14-6.34,6.4-21.7.11-7.18-7.11-47.76.24-3-3a2,2,0,1,0-.49.49l3.21,3.17,47.76-.24,7.18,7.11,22.27-.11,6.34-6.4,26.72-.14,11-11.08,136.91-.7,14.85,14.69,8.94,0a2,2,0,1,0,1.93-2.33Z" transform="translate(-64.22 -192.41)"/><rect class="cls-4" x="410.63" y="221.55" width="4.07" height="2.88" transform="translate(-65.34 -190.32) rotate(-0.29)"/><circle class="cls-4" cx="424.04" cy="235.43" r="1.61" transform="translate(-65.42 -190.24) rotate(-0.29)"/><rect class="cls-5" x="431.07" y="376.27" width="4.21" height="2.98" transform="matrix(1, -0.01, 0.01, 1, -66.11, -190.22)"/><path class="cls-4" d="M473.17,287.16a2,2,0,0,0-1.93,1.64l-18.15.09L438.8,274.76l-137.41.7L291,286l-27.09.14-6.43,6.5-23.79.12-7.91-7.83-51.94.26-8.08-8-82.07.42a2,2,0,1,0,0,.69l81.79-.42,8.08,8,51.94-.26,7.91,7.83,24.36-.12,6.43-6.5,27.09-.14,10.39-10.5,136.84-.7,14.29,14.14,18.43-.09a2,2,0,1,0,1.93-2.33Z" transform="translate(-64.22 -192.41)"/><polygon class="cls-6" points="377.82 46.84 377.81 43.97 373.74 43.99 373.76 46.86 373.91 46.86 370.02 50.46 366.73 50.48 366.74 51.77 364 51.87 363.99 50.71 362.17 50.72 362.15 47.14 363.97 47.13 363.96 44.25 359.89 44.27 359.91 47.15 361.73 47.14 361.75 50.72 359.93 50.73 359.94 53.61 364.01 53.59 364 52.29 366.74 52.19 366.74 53.35 370.81 53.33 370.8 50.46 370.64 50.46 374.53 46.86 377.82 46.84"/><rect class="cls-7" x="382" y="313.13" width="4.07" height="2.88" transform="translate(-65.81 -190.45) rotate(-0.29)"/><rect class="cls-4" x="456.27" y="308.92" width="4.07" height="2.88" transform="translate(-65.78 -190.09) rotate(-0.29)"/><rect class="cls-6" x="356.99" y="224.06" width="4.07" height="2.88" transform="translate(-65.36 -190.58) rotate(-0.29)"/><path class="cls-4" d="M493,236.06A2,2,0,0,0,491,237.7l-18.15.09L458.6,223.65l-137.41.7-10.39,10.5-27.09.14-6.43,6.5-23.79.12-7.91-7.83-51.94.26-8.08-8-82.07.42a2,2,0,1,0,0,.69l81.79-.42,8.08,8,51.94-.26,7.91,7.83,24.36-.12,6.43-6.5,27.09-.14L321.48,225l136.84-.7,14.29,14.14,18.43-.09a2,2,0,1,0,1.93-2.33Z" transform="translate(-64.22 -192.41)"/><path class="cls-7" d="M435.2,365.11a2.28,2.28,0,0,0-2.13,1.5l-63.16.32-5.49,5.54-64.29.33a2.29,2.29,0,1,0,0,1.6l65-.33,5.49-5.54,62.5-.32a2.28,2.28,0,1,0,2.12-3.1Z" transform="translate(-64.22 -192.41)"/><path class="cls-4" d="M923.47,249.26a2.09,2.09,0,0,0-2,1.74l-9.19,0-15.75-15.59-145.87.74L739,248l-28.35.14-6.73,6.79-23,.12-7.62-7.54-50.67.26-3.19-3.16a2.07,2.07,0,0,0,.37-1.2,2.1,2.1,0,1,0-.89,1.72l3.4,3.37L673,248.2l7.62,7.54,23.63-.12,6.73-6.8,28.35-.14,11.64-11.76,145.26-.74,15.75,15.59,9.49,0a2.09,2.09,0,1,0,2-2.47Z" transform="translate(-64.22 -192.41)"/><rect class="cls-4" x="298.77" y="211" width="4.21" height="2.98" transform="translate(-65.29 -190.88) rotate(-0.29)"/><polygon class="cls-7" points="373.26 62.55 373.26 63.55 370.32 63.23 370.31 61.77 368.48 61.78 368.44 56.48 370.27 56.47 370.25 53.59 368.42 53.6 368.39 51.08 370.24 51.07 370.22 48.19 366.16 48.21 366.17 51.09 367.97 51.08 367.99 53.6 366.18 53.61 366.2 56.49 368.01 56.48 368.06 61.78 366.24 61.79 366.26 64.67 370.32 64.64 370.32 63.65 373.26 63.97 373.27 65.43 377.34 65.41 377.33 62.53 373.26 62.55"/><rect class="cls-4" x="375.28" y="295.47" width="4.07" height="2.88" transform="matrix(1, -0.01, 0.01, 1, -65.72, -190.49)"/><circle class="cls-4" cx="388.68" cy="309.36" r="1.61" transform="translate(-65.79 -190.43) rotate(-0.29)"/><path class="cls-4" d="M519.22,204.82a2,2,0,0,0-1.93,1.64l-18.15.09-14.29-14.14-137.41.7-10.39,10.5-27.09.14-6.43,6.5-23.79.12-7.91-7.83-51.94.26-8.08-8-82.07.42a2,2,0,1,0,0,.69l81.79-.42,8.08,8,51.94-.26,7.91,7.83,24.36-.12,6.43-6.5,27.09-.14,10.39-10.5,136.84-.7,14.29,14.14,18.43-.09a2,2,0,1,0,1.93-2.33Z" transform="translate(-64.22 -192.41)"/><path class="cls-4" d="M457.61,310a2,2,0,0,0-1.93,1.64l-18.15.09-14.29-14.14-137.41.7-10.39,10.5-27.09.14-6.43,6.5-23.79.12-7.91-7.83-51.94.26-8.08-8-82.07.42a2,2,0,1,0,0,.69l81.79-.42,8.08,8,51.94-.26,7.91,7.83,24.36-.12,6.43-6.5,27.09-.14L286.12,299l136.84-.7,14.29,14.14,18.43-.09a2,2,0,1,0,1.93-2.33Z" transform="translate(-64.22 -192.41)"/><circle class="cls-4" cx="332.95" cy="226.62" r="3.06" transform="translate(-65.36 -190.72) rotate(-0.29)"/><circle class="cls-6" cx="319.92" cy="226.69" r="3.06" transform="translate(-65.37 -190.77) rotate(-0.29)"/><path class="cls-4" d="M592.62,367.21a2.09,2.09,0,0,0-2,1.74l-9.19,0-15.75-15.59-145.87.74L408.13,365.9l-28.35.14-6.73,6.79L350,373l-7.62-7.54-50.67.26-3.19-3.16a2.07,2.07,0,0,0,.37-1.2A2.1,2.1,0,1,0,288,363l3.4,3.37,50.67-.26,7.62,7.54,23.63-.12,6.73-6.8,28.35-.14,11.64-11.76,145.26-.74,15.75,15.59,9.49,0a2.09,2.09,0,1,0,2-2.47Z" transform="translate(-64.22 -192.41)"/><path class="cls-5" d="M377.74,257.77a2.09,2.09,0,0,0-2,1.74l-9.19,0L350.76,244l-145.87.74-11.64,11.76-28.35.14-6.73,6.79-23,.12L127.54,256l-50.67.26-3.19-3.16a2.07,2.07,0,0,0,.37-1.2,2.1,2.1,0,1,0-.89,1.72l3.4,3.37,50.67-.26,7.62,7.54,23.63-.12,6.73-6.8,28.35-.14,11.64-11.76,145.26-.74,15.75,15.59,9.49,0a2.09,2.09,0,1,0,2-2.47Z" transform="translate(-64.22 -192.41)"/><rect class="cls-4" x="752.24" y="420.42" width="7.15" height="5.06" transform="translate(-66.37 -188.55) rotate(-0.29)"/><rect class="cls-7" x="700.7" y="375.07" width="7.15" height="5.06" transform="translate(-66.14 -188.81) rotate(-0.29)"/><circle class="cls-5" cx="800.62" cy="366.46" r="2.84" transform="translate(-66.07 -188.32) rotate(-0.29)"/><circle class="cls-6" cx="380.91" cy="322.26" r="2.84" transform="translate(-65.85 -190.47) rotate(-0.29)"/><rect class="cls-5" x="775.3" y="325.57" width="7.15" height="5.06" transform="translate(-65.88 -188.44) rotate(-0.29)"/><rect class="cls-6" x="637.23" y="221.11" width="7.15" height="5.06" transform="translate(-65.35 -189.14) rotate(-0.29)"/><rect class="cls-4" x="607.02" y="424.63" width="7.15" height="5.06" transform="translate(-66.38 -189.3) rotate(-0.29)"/><rect class="cls-4" x="556.65" y="224.05" width="7.15" height="5.06" transform="translate(-65.36 -189.56) rotate(-0.29)"/><rect class="cls-7" x="525.19" y="396.45" width="7.15" height="5.06" transform="translate(-66.25 -189.7) rotate(-0.29)"/><circle class="cls-4" cx="554.68" cy="397.05" r="2.84" transform="matrix(1, -0.01, 0.01, 1, -66.23, -189.59)"/><path class="cls-4" d="M598.42,328.07l45.07-.23L654.19,317l39.58-.2,13.16,13,86.42-.44,13.45,13.32,136.57-.7a3.29,3.29,0,1,0,0-1.15l-136.09.69-13.45-13.31-86.42.44-13.16-13-40.53.21L643,326.7l-45.07.23L580.65,344.4l-91.59.47,1.15,1.14,90.92-.46Z" transform="translate(-64.22 -192.41)"/><rect class="cls-4" x="422.75" y="330.87" width="7.15" height="5.06" transform="translate(-65.9 -190.24) rotate(-0.29)"/></g><g id="Layer_4" data-name="Layer 4"><circle class="cls-5" cx="491.17" cy="337.22" r="0.92" transform="translate(-65.92 -189.91) rotate(-0.29)"/><circle class="cls-7" cx="491.19" cy="341.29" r="0.92" transform="translate(-65.94 -189.92) rotate(-0.29)"/><path class="cls-4" d="M545.72,383.13a1.12,1.12,0,0,0-1.1.93l-10.32.05-8.12-8-78.14.4-5.91,6-15.4.08-3.66,3.69-13.53.07-4.5-4.45-29.54.15-4.6-4.55-46.67.24a1.12,1.12,0,1,0,0,.39l46.51-.24,4.6,4.55,29.53-.15,4.5,4.45,13.85-.07,3.66-3.69,15.4-.08,5.91-6,77.82-.4,8.12,8,10.48-.05a1.12,1.12,0,1,0,1.1-1.33Z" transform="translate(-64.22 -192.41)"/><path class="cls-4" d="M771.08,396.26a2,2,0,0,0-1.93,1.64L751,398l-14.28-14.14-137.39.7L588.94,395l-27.08.14-6.43,6.5-23.78.12L523.73,394l-51.93.26-8.08-8-82.07.42a2,2,0,1,0,0,.69l81.78-.42,8.08,8,51.93-.26,7.91,7.83,24.35-.12,6.43-6.49,27.09-.14,10.39-10.5,136.82-.7,14.28,14.14,18.43-.09a2,2,0,1,0,1.93-2.33Z" transform="translate(-64.22 -192.41)"/><path class="cls-4" d="M751,438.3a2,2,0,0,0-1.93,1.64l-18.15.09-14.28-14.14-137.39.7-10.39,10.5-27.09.14-6.43,6.5-23.78.12L503.62,436l-51.93.26-8.08-8-82.07.42a2,2,0,1,0,0,.69l81.78-.42,8.08,8,51.93-.26,7.91,7.83,24.35-.12,6.43-6.49,27.09-.14,10.39-10.5,136.82-.7,14.28,14.14,18.43-.09A2,2,0,1,0,751,438.3Z" transform="translate(-64.22 -192.41)"/></g></g></svg>